<mxfile host="app.diagrams.net" agent="Mozilla/5.0 (Windows NT 10.0; Win64; x64) AppleWebKit/537.36 (KHTML, like Gecko) Chrome/131.0.0.0 Safari/537.36" version="25.0.3">
  <diagram name="PÃ¡gina-1" id="oIvVGwQ9aTxby1J0iC9m">
    <mxGraphModel dx="1114" dy="600" grid="1" gridSize="10" guides="1" tooltips="1" connect="1" arrows="1" fold="1" page="1" pageScale="1" pageWidth="827" pageHeight="1169" math="0" shadow="0">
      <root>
        <mxCell id="0" />
        <mxCell id="1" parent="0" />
        <mxCell id="KpzhviXLvuYRBZDsJhRa-1" value="" style="rounded=0;whiteSpace=wrap;html=1;" vertex="1" parent="1">
          <mxGeometry x="350" y="300" width="310" height="160" as="geometry" />
        </mxCell>
        <mxCell id="KpzhviXLvuYRBZDsJhRa-4" value="&lt;b&gt;&lt;font style=&quot;font-size: 18px;&quot;&gt;Imc&lt;/font&gt;&lt;/b&gt;" style="rounded=0;whiteSpace=wrap;html=1;" vertex="1" parent="1">
          <mxGeometry x="350" y="280" width="310" height="50" as="geometry" />
        </mxCell>
        <mxCell id="KpzhviXLvuYRBZDsJhRa-5" value="&lt;b&gt;&lt;font style=&quot;font-size: 18px; line-height: 110%;&quot;&gt;+ peso: double&lt;/font&gt;&lt;/b&gt;&lt;div&gt;&lt;b&gt;&lt;font style=&quot;font-size: 18px; line-height: 110%;&quot;&gt;&lt;br&gt;&lt;/font&gt;&lt;/b&gt;&lt;/div&gt;&lt;div&gt;&lt;b&gt;&lt;font style=&quot;font-size: 18px; line-height: 110%;&quot;&gt;+ altura: double&lt;/font&gt;&lt;/b&gt;&lt;/div&gt;" style="rounded=0;whiteSpace=wrap;html=1;align=left;" vertex="1" parent="1">
          <mxGeometry x="350" y="330" width="310" height="100" as="geometry" />
        </mxCell>
        <mxCell id="KpzhviXLvuYRBZDsJhRa-6" value="&lt;b&gt;&lt;font style=&quot;font-size: 18px;&quot;&gt;calcularImc(peso,altura):double&lt;/font&gt;&lt;/b&gt;" style="rounded=0;whiteSpace=wrap;html=1;" vertex="1" parent="1">
          <mxGeometry x="350" y="430" width="310" height="50" as="geometry" />
        </mxCell>
        <mxCell id="KpzhviXLvuYRBZDsJhRa-7" value="&lt;b&gt;&lt;font style=&quot;font-size: 18px;&quot;&gt;classificarImc(double: imc): String&lt;/font&gt;&lt;/b&gt;" style="rounded=0;whiteSpace=wrap;html=1;" vertex="1" parent="1">
          <mxGeometry x="350" y="480" width="310" height="50" as="geometry" />
        </mxCell>
      </root>
    </mxGraphModel>
  </diagram>
</mxfile>
